<?xml version="1.0" encoding="utf-8"?>
<svg id="flag-icons-eh" viewBox="0 0 512 512" xmlns="http://www.w3.org/2000/svg">
  <path fill="#c1272d" d="M 256 0 L 0 0 L 0 512 L 256 512 L 256 0 Z" style=""/>
  <path fill="none" stroke-width="12.5" d="M 256 191.4 L 218 308.2 L 317.4 236 L 194.6 236 L 293.9 308.2 L 256 191.4 Z" stroke="#006233" style=""/>
  <path d="M 256 0 L 512 0 L 512 256 L 256 256 L 256 0 Z" style=""/>
  <path fill="#007a3d" d="M 256 256 L 512 256 L 512 512 L 256 512 L 256 256 Z" style=""/>
  <path fill="#fff" d="M 256 149.3 L 512 149.3 L 512 362.6 L 256 362.6 L 256 149.3 Z" style=""/>
  <g stroke-width="1.7" transform="translate(-135 -6.5) scale(1.02539)">
    <circle cx="512" cy="256" r="68.3" fill="#c4111b"/>
    <circle cx="537.6" cy="256" r="68.3" fill="#fff"/>
    <path fill="#c4111b" d="m493.7 297.3 29-20.8 29 21.2-10.8-34.2 29-21-35.8-.2-11-34-11.3 33.9-35.7-.1 28.7 21.2-11.1 34z"/>
  </g>
  <path style="fill: rgb(255, 255, 255); stroke-width: 3px; stroke: rgb(255, 255, 255);" d="M 256 0 L 256 512"/>
</svg>